# xmcd
#
# Track frame offsets:
#	150
#	9113
#	23106
#	32565
#	46008
#	56870
#	68515
#	83182
#	94423
#	103620
#	115469
#	127629
#	138022
#	152841
#
# Disc length: 2197 seconds
#
# Revision: 0
# Processed by: cddbd v1.5.2PL0 Copyright (c) Steve Scherf et al.
# Submitted via: EasyCDDAExtractor 2010.6.0.0
#
DISCID=a308930e
DTITLE=Wilburn Brothers - Songs Of Inspiration
DYEAR=1900
DGENRE=
TTITLE0=When The Roll Is Called Up Yonder
TTITLE1=Angel Band
TTITLE2=Shall We Gather At The River
TTITLE3=Take Up Thy Cross
TTITLE4=Bringing In The Sheaves
TTITLE5=Let The Lower Lights Be Burning
TTITLE6=Wreck On The Highway
TTITLE7=I Feel Like Traveling On
TTITLE8=I've Got That Old Time Religion In My Heart
TTITLE9=Throw Out The Life Line
TTITLE10=Gathering Flowers For The Master's Bouquet
TTITLE11=Medals For Mother
TTITLE12=Steal Away
TTITLE13=Go On Home Unsaved
EXTD=
EXTT0=
EXTT1=
EXTT2=
EXTT3=
EXTT4=
EXTT5=
EXTT6=
EXTT7=
EXTT8=
EXTT9=
EXTT10=
EXTT11=
EXTT12=
EXTT13=
PLAYORDER=
